<svg width="25px" height="20px" viewBox="0 0 25 20" version="1.1" xmlns="http://www.w3.org/2000/svg" xmlns:xlink="http://www.w3.org/1999/xlink">
    <defs>
        <path d="M24.4606183,16.5322852 L15.6292842,18.8867124 C15.322968,18.9599196 15.0022896,18.9468332 14.703,18.8487617 L10.2147375,17.3786126 C9.91459858,17.2803101 9.59291635,17.2673776 9.28582796,17.3412007 L0.858025195,19.7069368 C0.484917047,19.7966945 0.109492416,19.5679893 0.0193812387,19.1960257 C0.00648615158,19.1427561 0,19.0881778 0,19.0334456 L0,3.87430476 C0,3.55430216 0.219834209,3.27594531 0.53186443,3.20081359 L9.28582796,0.756635642 C9.59291635,0.682812572 9.91459858,0.695745081 10.2147375,0.794047542 L14.703,2.26419664 C15.0022896,2.36226816 15.322968,2.37535463 15.6292842,2.30214739 L24.1366195,0.0250842928 C24.5098821,-0.064057641 24.8849207,0.165263448 24.9744141,0.537304005 C24.9820442,0.569021411 24.9874034,0.601180554 24.9904751,0.633566493 L24.9904751,15.9240552 C24.9627987,16.2163253 24.7516806,16.4626818 24.4606183,16.5322852 Z" id="path-1"></path>
        <filter x="-33.2%" y="-7.9%" width="166.5%" height="115.8%" filterUnits="objectBoundingBox" id="filter-3">
            <feGaussianBlur stdDeviation="0.609523782" in="SourceGraphic"></feGaussianBlur>
        </filter>
    </defs>
    <g id="Announcement-Banner" stroke="none" stroke-width="1" fill="none" fill-rule="evenodd">
        <g id="Artboard">
            <g id="Group-2">
                <mask id="mask-2" fill="white">
                    <use xlink:href="#path-1"></use>
                </mask>
                <use id="Clip-2" fill="#FFFFFF" xlink:href="#path-1"></use>
                <path d="M-1.52380946,9.10679198 L9.32751532,6.17376572 C9.64312043,6.08846018 9.9772181,6.10126778 10.2853662,6.21048483 L14.6301474,7.75040727 C14.9431917,7.86135969 15.282891,7.87277359 15.6026769,7.78308428 L26.5142845,4.72274114 L26.5142845,-0.731986344 L-1.52380946,-0.731986344 L-1.52380946,9.10679198 Z" id="Path" fill="#FE4B67" mask="url(#mask-2)"></path>
                <path d="M26.5142845,10.2901139 L15.6629598,13.2231401 C15.3473546,13.3084457 15.013257,13.2956381 14.7051089,13.186421 L10.3603277,11.6464986 C10.0472834,11.5355462 9.70758403,11.5241323 9.38779815,11.6138216 L-1.52380946,14.6741647 L-1.52380946,20.1288922 L26.5142845,20.1288922 L26.5142845,10.2901139 Z" id="Path" fill="#FE4B67" mask="url(#mask-2)"></path>
                <polygon id="Rectangle" fill-opacity="0.1" fill="#000000" filter="url(#filter-3)" mask="url(#mask-2)" points="9.74508956 -0.731986344 15.2453855 -0.731986344 15.2453855 22.3424259 9.74508956 22.3424259"></polygon>
            </g>
        </g>
    </g>
</svg>