<svg id="Ebene_1" data-name="Ebene 1" xmlns="http://www.w3.org/2000/svg" viewBox="0 0 1500 486"><path d="M246,162c-18.2,0-32.6,11.3-32.6,29.6,0,15.6,11.3,26.5,27.7,33.4l24.6,10.4c19.9,8.4,36.2,23.6,36.2,45.1a87,87,0,0,1-1.4,13.5,2.19,2.19,0,0,0,1.3,2.6,1.09,1.09,0,0,0,.5.1,2.27,2.27,0,0,0,1.8-.9,80.88,80.88,0,0,0,19.6-52.9c.1-42.7-35-80.9-77.7-80.9m-62.8,27.2a2.27,2.27,0,0,0-1.8.9A80.88,80.88,0,0,0,161.8,243c0,42.8,35.1,81,77.8,81,18.2,0,32.6-11.3,32.6-29.6,0-15.5-11.3-26.5-27.7-33.5l-24.6-10.4c-19.9-8.4-36.2-23.6-36.2-45.1a86.93,86.93,0,0,1,1.3-13.5,2.19,2.19,0,0,0-1.3-2.6,4.33,4.33,0,0,1-.5-.1"/><path d="M680,270l30.8-5.4v5.1c0,20.4-15.3,29.4-30.6,29.4-11,0-17.7-5.1-17.7-13.4s5.7-13.6,17.5-15.7m7.3-54.3c-15.9,0-35.1,7.5-36.5,28.4l-.2,2.2H665l.2-2c1.5-12.8,12.8-15.4,22-15.4,10.7,0,23.4,3.3,23.4,18.3v4.2L677.9,257c-19.7,3.6-30.2,13.4-30.2,28.5,0,12.3,8.2,26.7,31.2,26.7,13,0,24.5-5.2,31.5-14.2v12.9h14V246.3c.2-19.2-13.8-30.6-37.1-30.6M1084,270l30.8-5.4v5.1c0,20.4-15.3,29.4-30.6,29.4-10.9,0-17.7-5.1-17.7-13.4s5.7-13.6,17.5-15.7m7.4-54.3c-15.9,0-35.1,7.5-36.4,28.4l-.2,2.2h14.4l.2-2c1.5-12.8,12.8-15.4,22-15.4,10.7,0,23.4,3.3,23.4,18.3v4.2L1082,257c-19.7,3.6-30.2,13.4-30.2,28.5,0,12.3,8.2,26.7,31.2,26.7,13,0,24.4-5.2,31.5-14.2v12.9h14V246.3c0-19.2-14-30.6-37.1-30.6m181.6-36h-14.2V310.8H1273V275.3l11.6-10.6,35.1,46.2H1337l-41.2-55.1,42.4-38.6h-20.7l-44.5,40V179.7Zm-75.9,36.2c-11.2,0-20.8,4.1-27.4,12V217.2h-13.9v93.6H1170V257c0-13.4,9.9-27.8,25.9-27.8,14.4,0,21.8,8.7,21.8,26v55.5h14.2V254c0-23.9-13-38.1-34.8-38.1m-204,13.5c17.4,0,28.3,13.4,28.3,34.8s-11,34.5-28.3,34.5-28.2-13.2-28.2-34.5,10.8-34.8,28.2-34.8m1.2-13.5c-12,0-21.8,4.2-28.8,12.3V179.7H951.2V310.8h14V299.6c7,8.2,17.1,12.8,29.5,12.8,20,0,41.4-15.1,41.4-48.1,0-28.7-17.2-48.5-41.8-48.4m-90.6,42.9-18.8-3.6c-12.5-2.6-14.1-7.8-14.1-12.1,0-8.6,8.1-14.1,20.5-14.1s20.2,5.7,21,15.3l.2,2h14.7l-.2-2.2c-.8-13.1-10.7-28.2-35.7-28.2-20.2,0-35.1,11.6-35.1,27.4,0,13.5,8.2,21.9,25.2,25.3l18.6,3.8c12.5,2.7,14.1,7.5,14.1,12,0,9-8.2,14.4-22.3,14.4s-23-6-23.7-16.4l-.2-2.1H853.2l.2,2.4c1.2,18.1,15.9,29.5,38.4,29.5,22,0,36.9-11.2,36.9-28,0-13.3-8.4-21.9-25-25.4M833,184.6H814.9v18H833Zm-2.1,32.6H816.7v93.6h14.2Zm-38.8-1.4c-9,0-20.5,5-26.2,14.2V217.1H752v93.6h14.2V258.4c0-17.4,12.9-28.2,24.8-28.2a43.47,43.47,0,0,1,7.2.4l2.4.3V216.3l-1.8-.3c-2.3-.1-4.5-.2-6.7-.2m-180.6,95h14.2V179.7H611.4Zm-65-12.1c-17.5,0-28.8-13.5-28.8-34.5,0-21.4,11-34.8,28.8-34.8s28.7,13.4,28.7,34.8-11,34.5-28.7,34.5m0-82.8c-26.1,0-43.5,19.4-43.5,48.3s17.4,48.1,43.5,48.1c25.7,0,43.5-19.8,43.5-48.1s-17.9-48.3-43.5-48.3m-88.8,26.2-35.2-8.6c-11.9-2.9-18-9.3-18-19.2,0-13.6,12.6-22.8,31.4-22.8s30.9,9.6,32.2,25.6l.1,2H483v-2.3c-.6-23-20-39.1-47.2-39.1-26.7,0-46.2,15.4-46.2,36.8,0,16.9,10.4,28.6,29,33.3l35.1,8.6c11.9,2.9,18,9.6,18,19.4,0,14.4-13.4,23.4-34.8,23.4s-34.6-9.6-36.1-26.2l-.1-2h-15l.1,2.2c1.4,24.5,21,39.6,51,39.6,29.7,0,49.6-14.9,49.6-37-.1-17.2-10.3-29.2-28.7-33.7"/></svg>