<svg version="1" xmlns="http://www.w3.org/2000/svg" width="400" height="400" viewBox="0 0 300.000000 300.000000"><path d="M0 150v150h300V0H0v150zM206.3 5.7c.3.5-1.4 4.6-3.7 9.3-3.2 6.6-4.6 8.6-6.4 8.8-4.7.7-9.8-5-8.6-9.5.3-1.2 3.4-3.5 7.6-5.6 6.9-3.6 10.2-4.5 11.1-3zM185 30c10.4 5.3 13.7 13.1 12.7 29.5-.8 12-2.8 18.5-6.5 20.6-1.6.9-7.4 7.1-13.1 13.7-5.6 6.7-11 12.6-12.1 13.2-5.6 3-21.4-.2-23.9-4.8-.6-1.2-1.1-5.8-1.1-10.4 0-5.2-.9-12.4-2.5-19.4-2.9-13-2.7-14.6 4-24 6.4-8.9 16.7-16.8 25.5-19.5 4.9-1.5 13-1 17 1.1zm-56 1.9c0 .4-.8 1.9-1.8 3.2-1 1.3-3.1 4.7-4.6 7.5-1.5 2.8-4.1 5.8-5.7 6.8-6.5 3.8-11.1-1.3-7.4-8.1 2.2-3.9 3.7-4.9 12-7.9 7.1-2.6 7.5-2.7 7.5-1.5zm131.2 15.6c.9.9-2.8 15.2-4.6 18-3.3 5-11.6 1.8-11.6-4.6 0-2 1.2-3.7 4.8-6.6 7.9-6.6 10.2-8 11.4-6.8zM92.1 59.4c2.6.8 8.8 1.8 13.8 2.1l9.2.8 3.2 6.1c2.6 5.1 3.1 7.2 3.2 13.2 0 6.3-.4 7.9-4.2 15.5-5.5 11.1-13.5 19.9-21.6 23.8-10.8 5.2-24.4 6.4-31.6 2.6-6.1-3.1-11-19.4-9.7-32.4 1.1-10.6 3.1-15.5 8.4-20.1 4.5-3.9 16.3-10.3 21.9-12 1.6-.5 2.8-.9 2.8-.9s2.1.6 4.6 1.3zm147.3 18.1c5.4 1.4 10.9 2.5 12.2 2.5 3.1 0 3.8 4 3.2 19.2-.5 11.5-.7 12.2-4.6 20.1-4.2 8.4-11.1 17.4-16.6 21.5-10.8 8.1-26.5 9-34.9 2.1-4.7-3.9-6.7-7.7-7.7-14.8-.9-6.7 1.4-17.1 6-26.9 5.4-11.6 21.9-26.2 29.5-26.2 1.7 0 7.5 1.1 12.9 2.5zm-85.7 46.2c4.3 2 8.1 7.7 11.8 17.8 2.4 6.6 3.2 7.8 6.5 9.5 12.6 6.4 16.5 16.2 12.3 31.4-1.2 4.4-1.7 10.1-1.7 20.1-.1 13.5.1 14.4 3.7 25.1 2 6.1 3.7 12.7 3.7 14.7 0 10.9-11.7 34.2-20.5 40.9-13.4 10.3-29.1 14-38.6 9.2-6.9-3.5-18.2-17.8-21.6-27.4-1.6-4.6-1.7-4.6-7.9-5.8-9.3-1.8-17.2-5-21.3-8.7-2-1.9-7-8.8-11.1-15.4l-7.5-12-6.7.6c-5.9.5-7.3.3-12.2-2.1-6.2-3-12.4-9.5-15.8-16.4-1.8-3.7-2.3-6.4-2.3-12.3 0-6.9.4-8.3 4.3-16.3 5.1-10.1 14.2-20.6 21.1-24 8.9-4.5 28.9-9.6 37.3-9.6 1.6 0 4.2-.8 5.6-1.9 5.8-4 15.4-8.1 29.7-12.6 22.3-6.9 25.7-7.5 31.2-4.8zm113.9 13.9c1.7 6.8-3 19.2-8.1 21.6-5.2 2.4-10.5-2-9.1-7.5.3-1.3 2.4-3.7 4.7-5.2 2.2-1.6 5.4-4.8 7-7.2 3.4-5 4.6-5.3 5.5-1.7zM240 162.2c5.8 3 10.4 9.2 13 17.5 3.2 10.3 3 15.5-1 24.8-3.3 7.7-7 12.4-21.8 27.2-3.8 3.8-12.1 6.6-16.8 5.7-7.9-1.5-16.2-12.9-17.1-23.5-.7-7.5 1.3-13.3 7.7-21.9 2.9-3.9 6.6-10.7 8.5-15.6 4-10.2 6.3-13 12.5-14.9 6.5-2 10-1.8 15 .7z"/></svg>