<?xml version="1.0" encoding="UTF-8"?>
<svg width="208px" height="34px" viewBox="0 0 208 34" version="1.1" xmlns="http://www.w3.org/2000/svg" xmlns:xlink="http://www.w3.org/1999/xlink">
    <!-- Generator: Sketch 52.2 (67145) - http://www.bohemiancoding.com/sketch -->
    <title>LSX Black</title>
    <desc>Created with Sketch.</desc>
    <g id="LSX-Black" stroke="none" stroke-width="1" fill="none" fill-rule="evenodd">
        <g id="LSX" fill="#000000">
            <path d="M8.45737832,31.9110713 L8.45737832,7.76348898 C8.45737832,7.76348898 27.028314,7.75502216 29.8793894,7.75502216 C32.1118187,7.75502216 33.4772957,8.9503519 33.4772957,10.8560277 C33.4772957,12.1414674 32.7174135,12.9038977 30.1034221,14.2847557 C25.4955815,16.6662984 25.3056318,16.7613834 24.0700854,17.8092355 C22.0746569,19.476932 21.0290603,21.7627229 21.0290603,24.3819365 C21.0290603,30.1450397 25.5897667,34.0028587 32.337514,34.0028587 C35.662674,34.0028587 38.2766655,33.2411784 42.2675225,31.0982234 L40.4133302,24.6677749 C37.4681528,26.6205599 35.662674,27.335156 33.6201945,27.335156 C31.5760523,27.335156 30.2933718,26.2869706 30.2933718,24.6677749 C30.2933718,23.3344177 31.0061199,22.6677391 33.8101442,21.2389636 C37.278203,19.5240995 38.7978843,18.6191667 40.1291952,17.4762295 C41.934674,15.9517856 43.0274047,13.4748246 43.0274047,10.9513627 C43.0274047,5.14006702 38.1354293,0.667004128 31.1522607,0.667004128 L0,0.666678602 L0,31.9110713 L8.45737832,31.9110713" id="path3372" fill-rule="nonzero" transform="translate(21.513702, 17.334769) scale(-1, 1) rotate(-180.000000) translate(-21.513702, -17.334769) "></path>
            <path d="M67,26.5250899 L67,6.52770867 L80.3038134,6.52770867 L80.3038134,8.13860883 L68.8886416,8.13860883 L68.8886416,15.3598854 L79.1928477,15.3598854 L79.1928477,16.9707855 L68.8886416,16.9707855 L68.8886416,24.9141898 L80.5815548,24.9141898 L80.5815548,26.5250899 L67,26.5250899 Z M89.1637642,17.6929132 L83.3589688,26.5250899 L81.22036,26.5250899 L88.1083469,16.2486579 L81.4981014,6.52770867 L83.6922585,6.52770867 L89.1637642,14.9432733 L94.6630441,6.52770867 L96.8572012,6.52770867 L90.302504,16.2486579 L97.1627167,26.5250899 L94.9963338,26.5250899 L89.1637642,17.6929132 Z M113.132848,12.3325041 C112.744008,10.6290149 112.021887,9.41622291 110.966465,8.69409164 C109.911042,7.97196037 108.531607,7.61090016 106.828118,7.61090016 C105.624566,7.61090016 104.587675,7.85160697 103.717414,8.33302781 C102.847153,8.81444866 102.129662,9.46250546 101.564918,10.2772177 C101.000174,11.0919299 100.583566,12.0316122 100.315082,13.0962929 C100.046597,14.1609736 99.9123567,15.2858151 99.9123567,16.470851 C99.9123567,17.5818222 100.028081,18.6742608 100.259533,19.7481996 C100.490986,20.8221384 100.875191,21.7803367 101.41216,22.6228232 C101.94913,23.4653096 102.67125,24.1457693 103.578543,24.6642225 C104.485836,25.1826757 105.624565,25.4418984 106.994763,25.4418984 C107.846507,25.4418984 108.624175,25.3030291 109.32779,25.0252863 C110.031405,24.7475435 110.647059,24.3633384 111.174771,23.8726595 C111.702482,23.3819806 112.146864,22.8033584 112.507929,22.1367757 C112.868995,21.470193 113.142105,20.7388146 113.327267,19.9426186 L115.299231,19.9426186 C115.077036,20.9054603 114.753008,21.8173688 114.327136,22.6783714 C113.901263,23.5393741 113.341157,24.2938974 112.6468,24.9419639 C111.952443,25.5900304 111.109969,26.1038469 110.119353,26.4834287 C109.128737,26.8630105 107.966864,27.0527986 106.633699,27.0527986 C105.096855,27.0527986 103.782226,26.770431 102.689771,26.2056873 C101.597316,25.6409436 100.703923,24.8771624 100.009566,23.9143207 C99.3152092,22.951479 98.8106507,21.8358955 98.4958755,20.5675368 C98.1811003,19.299178 98.0237151,17.9521456 98.0237151,16.5263993 C98.0237151,14.6192321 98.2597929,12.9990901 98.7319557,11.6659247 C99.2041184,10.3327593 99.8568042,9.24494964 100.690033,8.40246316 C101.523261,7.55997669 102.504604,6.9489517 103.634092,6.56936988 C104.763579,6.18978806 105.994887,6 107.328052,6 C108.346442,6 109.295383,6.13424034 110.174902,6.40272504 C111.05442,6.67120974 111.832089,7.07393075 112.507929,7.61090016 C113.18377,8.14786956 113.739248,8.80981329 114.174378,9.59675121 C114.609508,10.3836891 114.910392,11.2955976 115.077037,12.3325041 L113.132848,12.3325041 Z M117.965548,26.5250899 L117.965548,6.52770867 L119.85419,6.52770867 L119.85419,15.1099181 L131.685974,15.1099181 L131.685974,6.52770867 L133.574615,6.52770867 L133.574615,26.5250899 L131.685974,26.5250899 L131.685974,16.7208183 L119.85419,16.7208183 L119.85419,26.5250899 L117.965548,26.5250899 Z M135.213289,26.5250899 L143.073371,6.52770867 L145.21198,6.52770867 L152.877643,26.5250899 L150.933453,26.5250899 L148.628199,20.2481341 L139.518281,20.2481341 L137.157479,26.5250899 L135.213289,26.5250899 Z M140.157086,18.637234 L147.989394,18.637234 L144.07324,8.13860883 L140.157086,18.637234 Z M156.460507,9.08292961 L156.404959,9.08292961 L156.404959,26.5250899 L154.516317,26.5250899 L154.516317,6.52770867 L156.654926,6.52770867 L168.208969,23.9976431 L168.264517,23.9976431 L168.264517,6.52770867 L170.153158,6.52770867 L170.153158,26.5250899 L167.959001,26.5250899 L156.460507,9.08292961 Z M182.123813,17.8040098 L182.123813,16.1931096 L190.678248,16.1931096 L190.678248,26.5250899 L189.067348,26.5250899 L189.067348,23.1088706 C188.715541,23.7013886 188.31282,24.2429789 187.859173,24.7336579 C187.405526,25.2243368 186.882452,25.6409447 186.289934,25.9834942 C185.697416,26.3260436 185.012327,26.5898953 184.234648,26.7750572 C183.456968,26.9602191 182.577462,27.0527986 181.596104,27.0527986 C180.337004,27.0527986 179.170501,26.8306077 178.096563,26.3862192 C177.022624,25.9418307 176.096828,25.279887 175.319149,24.4003682 C174.541469,23.5208493 173.935073,22.4145238 173.499942,21.0813584 C173.064812,19.7481929 172.84725,18.1928566 172.84725,16.4153027 C172.84725,14.952524 173.032409,13.5869758 173.402733,12.318617 C173.773057,11.0502582 174.342421,9.94856167 175.110842,9.01349426 C175.879264,8.07842685 176.842091,7.34241948 177.999353,6.80545008 C179.156615,6.26848067 180.522163,6 182.096039,6 C183.151461,6 184.137434,6.12961136 185.053985,6.38883797 C185.970536,6.64806458 186.794494,7.04152763 187.525883,7.56923895 C188.257273,8.09695026 188.872927,8.75426501 189.372864,9.54120293 C189.872801,10.3281408 190.233861,11.2585653 190.456055,12.3325041 L188.511865,12.3325041 C188.34522,11.5918566 188.062852,10.9252839 187.664754,10.3327659 C187.266656,9.74024797 186.789871,9.24494742 186.234386,8.84684941 C185.6789,8.44875141 185.058617,8.14323892 184.373518,7.93030277 C183.688419,7.71736663 182.975557,7.61090016 182.23491,7.61090016 C180.92026,7.61090016 179.79079,7.84234901 178.846464,8.30525367 C177.902139,8.76815833 177.124471,9.42084411 176.513437,10.2633306 C175.902402,11.1058171 175.453392,12.1149341 175.166391,13.2907119 C174.87939,14.4664897 174.735892,15.7579744 174.735892,17.1652045 C174.735892,18.2761757 174.897906,19.3315825 175.221939,20.3314566 C175.545972,21.3313306 176.018128,22.2108363 176.63842,22.9699999 C177.258712,23.7291636 178.017865,24.3309306 178.9159,24.7753191 C179.813935,25.2197075 180.836939,25.4418984 181.984942,25.4418984 C182.521912,25.4418984 183.077389,25.3817217 183.651391,25.2613665 C184.225392,25.1410113 184.78087,24.9419653 185.317839,24.6642225 C185.854809,24.3864797 186.354738,24.0254195 186.817643,23.581031 C187.280547,23.1366425 187.678639,22.5904232 188.011931,21.9423567 C188.326706,21.3128064 188.544268,20.6554916 188.664623,19.9703927 C188.784978,19.2852938 188.854413,18.5631734 188.872929,17.8040098 L182.123813,17.8040098 Z M194.233338,26.5250899 L194.233338,6.52770867 L207.537152,6.52770867 L207.537152,8.13860883 L196.12198,8.13860883 L196.12198,15.3598854 L206.426186,15.3598854 L206.426186,16.9707855 L196.12198,16.9707855 L196.12198,24.9141898 L207.814893,24.9141898 L207.814893,26.5250899 L194.233338,26.5250899 Z" id="EXCHANGE"></path>
        </g>
    </g>
</svg>