<?xml version="1.0" encoding="UTF-8"?>
<svg width="317px" height="85px" viewBox="0 0 317 85" version="1.1" xmlns="http://www.w3.org/2000/svg" xmlns:xlink="http://www.w3.org/1999/xlink">
    <!-- Generator: Sketch 52.2 (67145) - http://www.bohemiancoding.com/sketch -->
    <title>HSBC Black</title>
    <desc>Created with Sketch.</desc>
    <g id="HSBC-Black" stroke="none" stroke-width="1" fill="none" fill-rule="evenodd">
        <g id="HSBC" fill="#000000">
            <polygon id="Path" points="170.5 42.5 127.9 0 127.9 85"></polygon>
            <polygon id="Path" points="85.4 42.5 127.9 0 42.9 0"></polygon>
            <polygon id="Path" points="0.4 42.5 42.9 85 42.9 0"></polygon>
            <polygon id="Path" points="85.4 42.5 42.9 85 127.9 85"></polygon>
            <polygon id="Path" points="207.8 45.1 192.4 45.1 192.4 60.3 184.7 60.3 184.7 24.7 192.4 24.7 192.4 39.3 207.8 39.3 207.8 24.7 215.5 24.7 215.5 60.3 207.8 60.3"></polygon>
            <path d="M234,61 C226.3,61 220,57.9 219.9,49.4 L227.6,49.4 C227.7,53.2 229.9,55.5 234.1,55.5 C237.2,55.5 240.8,53.9 240.8,50.4 C240.8,47.6 238.4,46.8 234.4,45.6 L231.8,44.9 C226.2,43.3 220.6,41.1 220.6,34.7 C220.6,26.8 228,24.1 234.7,24.1 C241.6,24.1 247.6,26.5 247.7,34.4 L240,34.4 C239.7,31.2 237.8,29.3 234.2,29.3 C231.3,29.3 228.5,30.8 228.5,34 C228.5,36.6 230.9,37.4 235.9,39 L238.9,39.9 C245,41.8 248.9,43.9 248.9,49.9 C248.9,57.9 241,61 234,61 Z" id="Path"></path>
            <path d="M253.2,24.7 L265.6,24.7 C267.9,24.6 270.3,24.7 272.6,25.1 C276.9,26.1 280.2,28.9 280.2,33.7 C280.2,38.3 277.3,40.6 273.1,41.7 C277.9,42.6 281.5,45 281.5,50.3 C281.5,58.4 273.5,60.2 267.3,60.2 L253.3,60.2 L253.2,24.7 Z M265.6,39.5 C269,39.5 272.5,38.8 272.5,34.7 C272.5,31 269.3,30 266.1,30 L260.7,30 L260.7,39.5 L265.6,39.5 Z M266.3,55 C269.9,55 273.4,54.2 273.4,49.8 C273.4,45.4 270.4,44.6 266.7,44.6 L260.6,44.6 L260.6,55 L266.3,55 Z" id="Shape" fill-rule="nonzero"></path>
            <path d="M301.6,61 C290.1,61 285,53.7 285,42.8 C285,31.9 290.7,24 302,24 C309.1,24 316,27.2 316.2,35.2 L308.2,35.2 C307.8,31.6 305.4,29.8 302,29.8 C295,29.8 292.9,37.3 292.9,43 C292.9,48.7 295,55.3 301.7,55.3 C305.2,55.3 307.8,53.4 308.3,49.8 L316.3,49.8 C315.5,58 309,61 301.6,61 Z" id="Path"></path>
        </g>
    </g>
</svg>